<mxfile host="Electron" agent="Mozilla/5.0 (Windows NT 10.0; Win64; x64) AppleWebKit/537.36 (KHTML, like Gecko) draw.io/24.7.17 Chrome/128.0.6613.36 Electron/32.0.1 Safari/537.36" version="24.7.17">
  <diagram name="第 1 页" id="Av57uVPPr5neI0YAgq-q">
    <mxGraphModel dx="302" dy="266" grid="1" gridSize="10" guides="1" tooltips="1" connect="1" arrows="1" fold="1" page="1" pageScale="1" pageWidth="1169" pageHeight="827" math="0" shadow="0">
      <root>
        <mxCell id="0" />
        <mxCell id="1" parent="0" />
        <mxCell id="zGsJtaL-EvxE9tPqCpzB-6" value="" style="edgeStyle=orthogonalEdgeStyle;rounded=0;orthogonalLoop=1;jettySize=auto;html=1;entryX=0.5;entryY=0;entryDx=0;entryDy=0;exitX=0.5;exitY=1;exitDx=0;exitDy=0;" parent="1" source="zGsJtaL-EvxE9tPqCpzB-1" target="zGsJtaL-EvxE9tPqCpzB-4" edge="1">
          <mxGeometry relative="1" as="geometry">
            <mxPoint x="90" y="240" as="targetPoint" />
          </mxGeometry>
        </mxCell>
        <mxCell id="zGsJtaL-EvxE9tPqCpzB-1" value="初始化&lt;div&gt;FreeRTOS、&lt;/div&gt;&lt;div&gt;lwIP协议栈&lt;/div&gt;" style="rounded=0;whiteSpace=wrap;html=1;" parent="1" vertex="1">
          <mxGeometry x="40" y="120" width="100" height="60" as="geometry" />
        </mxCell>
        <mxCell id="zGsJtaL-EvxE9tPqCpzB-3" style="edgeStyle=orthogonalEdgeStyle;rounded=0;orthogonalLoop=1;jettySize=auto;html=1;exitX=0.5;exitY=1;exitDx=0;exitDy=0;entryX=0.5;entryY=0;entryDx=0;entryDy=0;" parent="1" source="zGsJtaL-EvxE9tPqCpzB-2" target="zGsJtaL-EvxE9tPqCpzB-1" edge="1">
          <mxGeometry relative="1" as="geometry" />
        </mxCell>
        <mxCell id="zGsJtaL-EvxE9tPqCpzB-2" value="" style="ellipse;whiteSpace=wrap;html=1;aspect=fixed;fillColor=#000000;" parent="1" vertex="1">
          <mxGeometry x="70" y="40" width="40" height="40" as="geometry" />
        </mxCell>
        <mxCell id="zGsJtaL-EvxE9tPqCpzB-10" style="edgeStyle=orthogonalEdgeStyle;rounded=0;orthogonalLoop=1;jettySize=auto;html=1;exitX=0.5;exitY=1;exitDx=0;exitDy=0;entryX=0.5;entryY=0;entryDx=0;entryDy=0;" parent="1" source="zGsJtaL-EvxE9tPqCpzB-4" target="zGsJtaL-EvxE9tPqCpzB-8" edge="1">
          <mxGeometry relative="1" as="geometry" />
        </mxCell>
        <mxCell id="zGsJtaL-EvxE9tPqCpzB-4" value="MAC, 网络IP配置" style="rounded=0;whiteSpace=wrap;html=1;" parent="1" vertex="1">
          <mxGeometry x="40" y="220" width="100" height="60" as="geometry" />
        </mxCell>
        <mxCell id="zGsJtaL-EvxE9tPqCpzB-11" style="edgeStyle=orthogonalEdgeStyle;rounded=0;orthogonalLoop=1;jettySize=auto;html=1;exitX=0.5;exitY=1;exitDx=0;exitDy=0;entryX=0.5;entryY=0;entryDx=0;entryDy=0;" parent="1" source="zGsJtaL-EvxE9tPqCpzB-8" target="zGsJtaL-EvxE9tPqCpzB-12" edge="1">
          <mxGeometry relative="1" as="geometry">
            <mxPoint x="90" y="420" as="targetPoint" />
          </mxGeometry>
        </mxCell>
        <mxCell id="zGsJtaL-EvxE9tPqCpzB-8" value="初始化算法IP、DMA IP" style="rounded=0;whiteSpace=wrap;html=1;" parent="1" vertex="1">
          <mxGeometry x="40" y="320" width="100" height="60" as="geometry" />
        </mxCell>
        <mxCell id="zGsJtaL-EvxE9tPqCpzB-15" style="edgeStyle=orthogonalEdgeStyle;rounded=0;orthogonalLoop=1;jettySize=auto;html=1;exitX=0.5;exitY=1;exitDx=0;exitDy=0;entryX=0.5;entryY=0;entryDx=0;entryDy=0;" parent="1" source="zGsJtaL-EvxE9tPqCpzB-12" target="zGsJtaL-EvxE9tPqCpzB-14" edge="1">
          <mxGeometry relative="1" as="geometry">
            <Array as="points">
              <mxPoint x="90" y="500" />
              <mxPoint x="160" y="500" />
              <mxPoint x="160" y="100" />
              <mxPoint x="250" y="100" />
            </Array>
          </mxGeometry>
        </mxCell>
        <mxCell id="zGsJtaL-EvxE9tPqCpzB-12" value="启动TCP服务器" style="rounded=0;whiteSpace=wrap;html=1;" parent="1" vertex="1">
          <mxGeometry x="40" y="420" width="100" height="60" as="geometry" />
        </mxCell>
        <mxCell id="zGsJtaL-EvxE9tPqCpzB-16" style="edgeStyle=orthogonalEdgeStyle;rounded=0;orthogonalLoop=1;jettySize=auto;html=1;exitX=0.5;exitY=1;exitDx=0;exitDy=0;" parent="1" source="zGsJtaL-EvxE9tPqCpzB-14" edge="1">
          <mxGeometry relative="1" as="geometry">
            <mxPoint x="250" y="220" as="targetPoint" />
          </mxGeometry>
        </mxCell>
        <mxCell id="zGsJtaL-EvxE9tPqCpzB-14" value="等待客户端连接" style="rounded=0;whiteSpace=wrap;html=1;" parent="1" vertex="1">
          <mxGeometry x="200" y="120" width="100" height="60" as="geometry" />
        </mxCell>
        <mxCell id="zGsJtaL-EvxE9tPqCpzB-24" style="edgeStyle=orthogonalEdgeStyle;rounded=0;orthogonalLoop=1;jettySize=auto;html=1;exitX=0.5;exitY=1;exitDx=0;exitDy=0;entryX=0.5;entryY=0;entryDx=0;entryDy=0;" parent="1" source="zGsJtaL-EvxE9tPqCpzB-17" target="zGsJtaL-EvxE9tPqCpzB-18" edge="1">
          <mxGeometry relative="1" as="geometry" />
        </mxCell>
        <mxCell id="zGsJtaL-EvxE9tPqCpzB-17" value="接收请求数据头" style="rounded=0;whiteSpace=wrap;html=1;" parent="1" vertex="1">
          <mxGeometry x="200" y="220" width="100" height="60" as="geometry" />
        </mxCell>
        <mxCell id="zGsJtaL-EvxE9tPqCpzB-20" style="edgeStyle=orthogonalEdgeStyle;rounded=0;orthogonalLoop=1;jettySize=auto;html=1;entryX=0.5;entryY=0;entryDx=0;entryDy=0;exitX=0.5;exitY=1;exitDx=0;exitDy=0;" parent="1" source="zGsJtaL-EvxE9tPqCpzB-22" target="zGsJtaL-EvxE9tPqCpzB-50" edge="1">
          <mxGeometry relative="1" as="geometry">
            <mxPoint x="250" y="520" as="targetPoint" />
          </mxGeometry>
        </mxCell>
        <mxCell id="zGsJtaL-EvxE9tPqCpzB-37" value="Y" style="edgeLabel;html=1;align=center;verticalAlign=middle;resizable=0;points=[];" parent="zGsJtaL-EvxE9tPqCpzB-20" vertex="1" connectable="0">
          <mxGeometry x="-0.46" relative="1" as="geometry">
            <mxPoint y="-1" as="offset" />
          </mxGeometry>
        </mxCell>
        <mxCell id="zGsJtaL-EvxE9tPqCpzB-25" style="edgeStyle=orthogonalEdgeStyle;rounded=0;orthogonalLoop=1;jettySize=auto;html=1;exitX=0.5;exitY=1;exitDx=0;exitDy=0;entryX=0.5;entryY=0;entryDx=0;entryDy=0;" parent="1" source="zGsJtaL-EvxE9tPqCpzB-18" target="zGsJtaL-EvxE9tPqCpzB-22" edge="1">
          <mxGeometry relative="1" as="geometry" />
        </mxCell>
        <mxCell id="zGsJtaL-EvxE9tPqCpzB-18" value="解析请求" style="rounded=0;whiteSpace=wrap;html=1;" parent="1" vertex="1">
          <mxGeometry x="200" y="320" width="100" height="60" as="geometry" />
        </mxCell>
        <mxCell id="zGsJtaL-EvxE9tPqCpzB-33" style="edgeStyle=orthogonalEdgeStyle;rounded=0;orthogonalLoop=1;jettySize=auto;html=1;exitX=0.5;exitY=1;exitDx=0;exitDy=0;entryX=0.5;entryY=0;entryDx=0;entryDy=0;" parent="1" source="zGsJtaL-EvxE9tPqCpzB-50" target="zGsJtaL-EvxE9tPqCpzB-31" edge="1">
          <mxGeometry relative="1" as="geometry">
            <mxPoint x="250" y="580" as="sourcePoint" />
          </mxGeometry>
        </mxCell>
        <mxCell id="zGsJtaL-EvxE9tPqCpzB-29" style="edgeStyle=orthogonalEdgeStyle;rounded=0;orthogonalLoop=1;jettySize=auto;html=1;exitX=1;exitY=0.5;exitDx=0;exitDy=0;entryX=0.5;entryY=1;entryDx=0;entryDy=0;" parent="1" source="zGsJtaL-EvxE9tPqCpzB-22" target="zGsJtaL-EvxE9tPqCpzB-27" edge="1">
          <mxGeometry relative="1" as="geometry" />
        </mxCell>
        <mxCell id="zGsJtaL-EvxE9tPqCpzB-38" value="N" style="edgeLabel;html=1;align=center;verticalAlign=middle;resizable=0;points=[];" parent="zGsJtaL-EvxE9tPqCpzB-29" vertex="1" connectable="0">
          <mxGeometry x="-0.7082" relative="1" as="geometry">
            <mxPoint x="-13" as="offset" />
          </mxGeometry>
        </mxCell>
        <mxCell id="zGsJtaL-EvxE9tPqCpzB-22" value="请求头有效？" style="rhombus;whiteSpace=wrap;html=1;" parent="1" vertex="1">
          <mxGeometry x="200" y="420" width="100" height="60" as="geometry" />
        </mxCell>
        <mxCell id="zGsJtaL-EvxE9tPqCpzB-28" style="edgeStyle=orthogonalEdgeStyle;rounded=0;orthogonalLoop=1;jettySize=auto;html=1;exitX=0.5;exitY=0;exitDx=0;exitDy=0;entryX=1;entryY=0.5;entryDx=0;entryDy=0;" parent="1" source="zGsJtaL-EvxE9tPqCpzB-27" target="zGsJtaL-EvxE9tPqCpzB-14" edge="1">
          <mxGeometry relative="1" as="geometry" />
        </mxCell>
        <mxCell id="zGsJtaL-EvxE9tPqCpzB-27" value="断开客户端连接" style="rounded=0;whiteSpace=wrap;html=1;" parent="1" vertex="1">
          <mxGeometry x="320" y="320" width="100" height="60" as="geometry" />
        </mxCell>
        <mxCell id="zGsJtaL-EvxE9tPqCpzB-32" style="edgeStyle=orthogonalEdgeStyle;rounded=0;orthogonalLoop=1;jettySize=auto;html=1;exitX=1;exitY=0.5;exitDx=0;exitDy=0;" parent="1" source="zGsJtaL-EvxE9tPqCpzB-31" edge="1">
          <mxGeometry relative="1" as="geometry">
            <mxPoint x="370" y="450" as="targetPoint" />
          </mxGeometry>
        </mxCell>
        <mxCell id="zGsJtaL-EvxE9tPqCpzB-39" value="N" style="edgeLabel;html=1;align=center;verticalAlign=middle;resizable=0;points=[];" parent="zGsJtaL-EvxE9tPqCpzB-32" vertex="1" connectable="0">
          <mxGeometry x="-0.8403" relative="1" as="geometry">
            <mxPoint x="-14" as="offset" />
          </mxGeometry>
        </mxCell>
        <mxCell id="zGsJtaL-EvxE9tPqCpzB-34" style="edgeStyle=orthogonalEdgeStyle;rounded=0;orthogonalLoop=1;jettySize=auto;html=1;exitX=0.5;exitY=1;exitDx=0;exitDy=0;entryX=0;entryY=0.5;entryDx=0;entryDy=0;" parent="1" source="zGsJtaL-EvxE9tPqCpzB-31" target="zGsJtaL-EvxE9tPqCpzB-17" edge="1">
          <mxGeometry relative="1" as="geometry">
            <Array as="points">
              <mxPoint x="250" y="700" />
              <mxPoint x="180" y="700" />
              <mxPoint x="180" y="250" />
            </Array>
          </mxGeometry>
        </mxCell>
        <mxCell id="zGsJtaL-EvxE9tPqCpzB-40" value="Y" style="edgeLabel;html=1;align=center;verticalAlign=middle;resizable=0;points=[];" parent="zGsJtaL-EvxE9tPqCpzB-34" vertex="1" connectable="0">
          <mxGeometry x="-0.9495" y="2" relative="1" as="geometry">
            <mxPoint x="-2" y="-6" as="offset" />
          </mxGeometry>
        </mxCell>
        <mxCell id="zGsJtaL-EvxE9tPqCpzB-31" value="执行成功？" style="rhombus;whiteSpace=wrap;html=1;" parent="1" vertex="1">
          <mxGeometry x="200" y="620" width="100" height="60" as="geometry" />
        </mxCell>
        <mxCell id="zGsJtaL-EvxE9tPqCpzB-125" style="edgeStyle=orthogonalEdgeStyle;rounded=0;orthogonalLoop=1;jettySize=auto;html=1;exitX=1;exitY=0.5;exitDx=0;exitDy=0;curved=1;endArrow=none;endFill=0;entryX=0;entryY=0.5;entryDx=0;entryDy=0;" parent="1" source="zGsJtaL-EvxE9tPqCpzB-50" target="EYHyG1AjcD9HK0cgToKn-1" edge="1">
          <mxGeometry relative="1" as="geometry">
            <Array as="points">
              <mxPoint x="440" y="550" />
            </Array>
            <mxPoint x="390" y="470" as="targetPoint" />
          </mxGeometry>
        </mxCell>
        <mxCell id="zGsJtaL-EvxE9tPqCpzB-50" value="响应请求&lt;div&gt;执行对应操作&lt;/div&gt;&lt;div&gt;并回复&lt;/div&gt;" style="shape=process;whiteSpace=wrap;html=1;backgroundOutline=1;" parent="1" vertex="1">
          <mxGeometry x="200" y="520" width="100" height="60" as="geometry" />
        </mxCell>
        <mxCell id="EYHyG1AjcD9HK0cgToKn-1" value="请求响应子流程" style="swimlane;whiteSpace=wrap;html=1;" parent="1" vertex="1">
          <mxGeometry x="440" y="134" width="650" height="560" as="geometry">
            <mxRectangle x="440" y="120" width="120" height="30" as="alternateBounds" />
          </mxGeometry>
        </mxCell>
        <mxCell id="zGsJtaL-EvxE9tPqCpzB-60" style="edgeStyle=orthogonalEdgeStyle;rounded=0;orthogonalLoop=1;jettySize=auto;html=1;exitX=0.5;exitY=1;exitDx=0;exitDy=0;entryX=0.5;entryY=0;entryDx=0;entryDy=0;" parent="EYHyG1AjcD9HK0cgToKn-1" source="zGsJtaL-EvxE9tPqCpzB-61" target="zGsJtaL-EvxE9tPqCpzB-64" edge="1">
          <mxGeometry relative="1" as="geometry" />
        </mxCell>
        <mxCell id="zGsJtaL-EvxE9tPqCpzB-61" value="回复响应头&lt;div&gt;{&quot;ok&quot;, [图像大小]}&lt;/div&gt;" style="rounded=0;whiteSpace=wrap;html=1;" parent="EYHyG1AjcD9HK0cgToKn-1" vertex="1">
          <mxGeometry x="170" y="110" width="100" height="60" as="geometry" />
        </mxCell>
        <mxCell id="zGsJtaL-EvxE9tPqCpzB-62" style="edgeStyle=orthogonalEdgeStyle;rounded=0;orthogonalLoop=1;jettySize=auto;html=1;exitX=0.5;exitY=1;exitDx=0;exitDy=0;entryX=0.5;entryY=0;entryDx=0;entryDy=0;" parent="EYHyG1AjcD9HK0cgToKn-1" source="zGsJtaL-EvxE9tPqCpzB-64" target="zGsJtaL-EvxE9tPqCpzB-66" edge="1">
          <mxGeometry relative="1" as="geometry">
            <mxPoint x="380" y="290" as="targetPoint" />
            <Array as="points">
              <mxPoint x="220" y="300" />
              <mxPoint x="220" y="300" />
            </Array>
          </mxGeometry>
        </mxCell>
        <mxCell id="zGsJtaL-EvxE9tPqCpzB-116" value="Y" style="edgeLabel;html=1;align=center;verticalAlign=middle;resizable=0;points=[];" parent="zGsJtaL-EvxE9tPqCpzB-62" vertex="1" connectable="0">
          <mxGeometry x="-0.0262" y="2" relative="1" as="geometry">
            <mxPoint x="-2" y="-10" as="offset" />
          </mxGeometry>
        </mxCell>
        <mxCell id="zGsJtaL-EvxE9tPqCpzB-63" style="edgeStyle=orthogonalEdgeStyle;rounded=0;orthogonalLoop=1;jettySize=auto;html=1;exitX=1;exitY=0.5;exitDx=0;exitDy=0;entryX=0.5;entryY=0;entryDx=0;entryDy=0;" parent="EYHyG1AjcD9HK0cgToKn-1" source="zGsJtaL-EvxE9tPqCpzB-64" target="zGsJtaL-EvxE9tPqCpzB-69" edge="1">
          <mxGeometry relative="1" as="geometry" />
        </mxCell>
        <mxCell id="zGsJtaL-EvxE9tPqCpzB-115" value="N" style="edgeLabel;html=1;align=center;verticalAlign=middle;resizable=0;points=[];" parent="zGsJtaL-EvxE9tPqCpzB-63" vertex="1" connectable="0">
          <mxGeometry x="-0.8169" y="-1" relative="1" as="geometry">
            <mxPoint x="-19" y="-1" as="offset" />
          </mxGeometry>
        </mxCell>
        <mxCell id="zGsJtaL-EvxE9tPqCpzB-64" value="发送成功？" style="rhombus;whiteSpace=wrap;html=1;" parent="EYHyG1AjcD9HK0cgToKn-1" vertex="1">
          <mxGeometry x="170" y="210" width="100" height="60" as="geometry" />
        </mxCell>
        <mxCell id="zGsJtaL-EvxE9tPqCpzB-65" style="edgeStyle=orthogonalEdgeStyle;rounded=0;orthogonalLoop=1;jettySize=auto;html=1;exitX=0.5;exitY=1;exitDx=0;exitDy=0;entryX=0.5;entryY=0;entryDx=0;entryDy=0;" parent="EYHyG1AjcD9HK0cgToKn-1" source="zGsJtaL-EvxE9tPqCpzB-67" target="zGsJtaL-EvxE9tPqCpzB-61" edge="1">
          <mxGeometry relative="1" as="geometry">
            <mxPoint x="220" y="69.99999999999989" as="sourcePoint" />
          </mxGeometry>
        </mxCell>
        <mxCell id="zGsJtaL-EvxE9tPqCpzB-66" value="读取DDR，发送width*height个&lt;div&gt;图像数据&lt;/div&gt;" style="rounded=0;whiteSpace=wrap;html=1;" parent="EYHyG1AjcD9HK0cgToKn-1" vertex="1">
          <mxGeometry x="170" y="310" width="100" height="60" as="geometry" />
        </mxCell>
        <mxCell id="zGsJtaL-EvxE9tPqCpzB-67" value="图像&lt;div&gt;下载&lt;/div&gt;" style="ellipse;whiteSpace=wrap;html=1;aspect=fixed;" parent="EYHyG1AjcD9HK0cgToKn-1" vertex="1">
          <mxGeometry x="200" y="30" width="40" height="40" as="geometry" />
        </mxCell>
        <mxCell id="zGsJtaL-EvxE9tPqCpzB-68" value="成功" style="ellipse;whiteSpace=wrap;html=1;aspect=fixed;" parent="EYHyG1AjcD9HK0cgToKn-1" vertex="1">
          <mxGeometry x="200" y="510" width="40" height="40" as="geometry" />
        </mxCell>
        <mxCell id="zGsJtaL-EvxE9tPqCpzB-69" value="失败" style="ellipse;whiteSpace=wrap;html=1;aspect=fixed;" parent="EYHyG1AjcD9HK0cgToKn-1" vertex="1">
          <mxGeometry x="280" y="510" width="40" height="40" as="geometry" />
        </mxCell>
        <mxCell id="zGsJtaL-EvxE9tPqCpzB-70" style="edgeStyle=orthogonalEdgeStyle;rounded=0;orthogonalLoop=1;jettySize=auto;html=1;exitX=0.5;exitY=1;exitDx=0;exitDy=0;entryX=0.5;entryY=0;entryDx=0;entryDy=0;" parent="EYHyG1AjcD9HK0cgToKn-1" source="zGsJtaL-EvxE9tPqCpzB-72" target="zGsJtaL-EvxE9tPqCpzB-68" edge="1">
          <mxGeometry relative="1" as="geometry" />
        </mxCell>
        <mxCell id="zGsJtaL-EvxE9tPqCpzB-113" value="Y" style="edgeLabel;html=1;align=center;verticalAlign=middle;resizable=0;points=[];" parent="zGsJtaL-EvxE9tPqCpzB-70" vertex="1" connectable="0">
          <mxGeometry x="0.1881" y="3" relative="1" as="geometry">
            <mxPoint x="-3" y="-14" as="offset" />
          </mxGeometry>
        </mxCell>
        <mxCell id="zGsJtaL-EvxE9tPqCpzB-71" style="edgeStyle=orthogonalEdgeStyle;rounded=0;orthogonalLoop=1;jettySize=auto;html=1;exitX=1;exitY=0.5;exitDx=0;exitDy=0;" parent="EYHyG1AjcD9HK0cgToKn-1" source="zGsJtaL-EvxE9tPqCpzB-72" edge="1">
          <mxGeometry relative="1" as="geometry">
            <mxPoint x="300" y="440" as="targetPoint" />
          </mxGeometry>
        </mxCell>
        <mxCell id="zGsJtaL-EvxE9tPqCpzB-114" value="N" style="edgeLabel;html=1;align=center;verticalAlign=middle;resizable=0;points=[];" parent="zGsJtaL-EvxE9tPqCpzB-71" vertex="1" connectable="0">
          <mxGeometry x="-0.0365" y="4" relative="1" as="geometry">
            <mxPoint x="-9" y="4" as="offset" />
          </mxGeometry>
        </mxCell>
        <mxCell id="zGsJtaL-EvxE9tPqCpzB-72" value="发送成功？" style="rhombus;whiteSpace=wrap;html=1;" parent="EYHyG1AjcD9HK0cgToKn-1" vertex="1">
          <mxGeometry x="170" y="410" width="100" height="60" as="geometry" />
        </mxCell>
        <mxCell id="zGsJtaL-EvxE9tPqCpzB-73" style="edgeStyle=orthogonalEdgeStyle;rounded=0;orthogonalLoop=1;jettySize=auto;html=1;exitX=0.5;exitY=1;exitDx=0;exitDy=0;entryX=0.5;entryY=0;entryDx=0;entryDy=0;" parent="EYHyG1AjcD9HK0cgToKn-1" source="zGsJtaL-EvxE9tPqCpzB-66" target="zGsJtaL-EvxE9tPqCpzB-72" edge="1">
          <mxGeometry relative="1" as="geometry" />
        </mxCell>
        <mxCell id="zGsJtaL-EvxE9tPqCpzB-74" style="edgeStyle=orthogonalEdgeStyle;rounded=0;orthogonalLoop=1;jettySize=auto;html=1;exitX=0.5;exitY=1;exitDx=0;exitDy=0;entryX=0.5;entryY=0;entryDx=0;entryDy=0;" parent="EYHyG1AjcD9HK0cgToKn-1" source="zGsJtaL-EvxE9tPqCpzB-75" target="zGsJtaL-EvxE9tPqCpzB-80" edge="1">
          <mxGeometry relative="1" as="geometry">
            <mxPoint x="380" y="310" as="targetPoint" />
          </mxGeometry>
        </mxCell>
        <mxCell id="zGsJtaL-EvxE9tPqCpzB-75" value="向配置IP地址addr写入数据data" style="rounded=0;whiteSpace=wrap;html=1;" parent="EYHyG1AjcD9HK0cgToKn-1" vertex="1">
          <mxGeometry x="330" y="210" width="100" height="60" as="geometry" />
        </mxCell>
        <mxCell id="zGsJtaL-EvxE9tPqCpzB-79" style="edgeStyle=orthogonalEdgeStyle;rounded=0;orthogonalLoop=1;jettySize=auto;html=1;exitX=0.5;exitY=1;exitDx=0;exitDy=0;entryX=0.5;entryY=0;entryDx=0;entryDy=0;" parent="EYHyG1AjcD9HK0cgToKn-1" source="zGsJtaL-EvxE9tPqCpzB-101" target="zGsJtaL-EvxE9tPqCpzB-75" edge="1">
          <mxGeometry relative="1" as="geometry">
            <mxPoint x="380" y="170" as="sourcePoint" />
          </mxGeometry>
        </mxCell>
        <mxCell id="zGsJtaL-EvxE9tPqCpzB-118" value="Y" style="edgeLabel;html=1;align=center;verticalAlign=middle;resizable=0;points=[];" parent="zGsJtaL-EvxE9tPqCpzB-79" vertex="1" connectable="0">
          <mxGeometry x="-0.2404" y="1" relative="1" as="geometry">
            <mxPoint x="-1" y="-5" as="offset" />
          </mxGeometry>
        </mxCell>
        <mxCell id="zGsJtaL-EvxE9tPqCpzB-80" value="回复响应头&lt;div&gt;{&quot;ok&quot;, (uint32_t)0}&lt;/div&gt;" style="rounded=0;whiteSpace=wrap;html=1;" parent="EYHyG1AjcD9HK0cgToKn-1" vertex="1">
          <mxGeometry x="330" y="310" width="100" height="60" as="geometry" />
        </mxCell>
        <mxCell id="zGsJtaL-EvxE9tPqCpzB-81" value="参数&lt;div&gt;上传&lt;/div&gt;" style="ellipse;whiteSpace=wrap;html=1;aspect=fixed;" parent="EYHyG1AjcD9HK0cgToKn-1" vertex="1">
          <mxGeometry x="360" y="30" width="40" height="40" as="geometry" />
        </mxCell>
        <mxCell id="zGsJtaL-EvxE9tPqCpzB-82" value="成功" style="ellipse;whiteSpace=wrap;html=1;aspect=fixed;" parent="EYHyG1AjcD9HK0cgToKn-1" vertex="1">
          <mxGeometry x="360" y="510" width="40" height="40" as="geometry" />
        </mxCell>
        <mxCell id="zGsJtaL-EvxE9tPqCpzB-83" value="失败" style="ellipse;whiteSpace=wrap;html=1;aspect=fixed;" parent="EYHyG1AjcD9HK0cgToKn-1" vertex="1">
          <mxGeometry x="440" y="510" width="40" height="40" as="geometry" />
        </mxCell>
        <mxCell id="zGsJtaL-EvxE9tPqCpzB-84" style="edgeStyle=orthogonalEdgeStyle;rounded=0;orthogonalLoop=1;jettySize=auto;html=1;exitX=0.5;exitY=1;exitDx=0;exitDy=0;entryX=0.5;entryY=0;entryDx=0;entryDy=0;" parent="EYHyG1AjcD9HK0cgToKn-1" source="zGsJtaL-EvxE9tPqCpzB-86" target="zGsJtaL-EvxE9tPqCpzB-82" edge="1">
          <mxGeometry relative="1" as="geometry" />
        </mxCell>
        <mxCell id="zGsJtaL-EvxE9tPqCpzB-120" value="Y" style="edgeLabel;html=1;align=center;verticalAlign=middle;resizable=0;points=[];" parent="zGsJtaL-EvxE9tPqCpzB-84" vertex="1" connectable="0">
          <mxGeometry x="-0.1154" y="1" relative="1" as="geometry">
            <mxPoint x="-1" y="-8" as="offset" />
          </mxGeometry>
        </mxCell>
        <mxCell id="zGsJtaL-EvxE9tPqCpzB-85" style="edgeStyle=orthogonalEdgeStyle;rounded=0;orthogonalLoop=1;jettySize=auto;html=1;exitX=1;exitY=0.5;exitDx=0;exitDy=0;entryX=0.5;entryY=0;entryDx=0;entryDy=0;" parent="EYHyG1AjcD9HK0cgToKn-1" source="zGsJtaL-EvxE9tPqCpzB-101" target="zGsJtaL-EvxE9tPqCpzB-83" edge="1">
          <mxGeometry relative="1" as="geometry">
            <mxPoint x="480" y="439.66666666666674" as="targetPoint" />
          </mxGeometry>
        </mxCell>
        <mxCell id="zGsJtaL-EvxE9tPqCpzB-117" value="N" style="edgeLabel;html=1;align=center;verticalAlign=middle;resizable=0;points=[];" parent="zGsJtaL-EvxE9tPqCpzB-85" vertex="1" connectable="0">
          <mxGeometry x="-0.8941" y="1" relative="1" as="geometry">
            <mxPoint x="-12" y="1" as="offset" />
          </mxGeometry>
        </mxCell>
        <mxCell id="zGsJtaL-EvxE9tPqCpzB-103" style="edgeStyle=orthogonalEdgeStyle;rounded=0;orthogonalLoop=1;jettySize=auto;html=1;exitX=1;exitY=0.5;exitDx=0;exitDy=0;" parent="EYHyG1AjcD9HK0cgToKn-1" source="zGsJtaL-EvxE9tPqCpzB-86" edge="1">
          <mxGeometry relative="1" as="geometry">
            <mxPoint x="460" y="440" as="targetPoint" />
          </mxGeometry>
        </mxCell>
        <mxCell id="zGsJtaL-EvxE9tPqCpzB-119" value="N" style="edgeLabel;html=1;align=center;verticalAlign=middle;resizable=0;points=[];" parent="zGsJtaL-EvxE9tPqCpzB-103" vertex="1" connectable="0">
          <mxGeometry x="0.2985" relative="1" as="geometry">
            <mxPoint x="-10" as="offset" />
          </mxGeometry>
        </mxCell>
        <mxCell id="zGsJtaL-EvxE9tPqCpzB-86" value="发送成功？" style="rhombus;whiteSpace=wrap;html=1;" parent="EYHyG1AjcD9HK0cgToKn-1" vertex="1">
          <mxGeometry x="330" y="410" width="100" height="60" as="geometry" />
        </mxCell>
        <mxCell id="zGsJtaL-EvxE9tPqCpzB-87" style="edgeStyle=orthogonalEdgeStyle;rounded=0;orthogonalLoop=1;jettySize=auto;html=1;exitX=0.5;exitY=1;exitDx=0;exitDy=0;entryX=0.5;entryY=0;entryDx=0;entryDy=0;" parent="EYHyG1AjcD9HK0cgToKn-1" source="zGsJtaL-EvxE9tPqCpzB-80" target="zGsJtaL-EvxE9tPqCpzB-86" edge="1">
          <mxGeometry relative="1" as="geometry" />
        </mxCell>
        <mxCell id="zGsJtaL-EvxE9tPqCpzB-88" style="edgeStyle=orthogonalEdgeStyle;rounded=0;orthogonalLoop=1;jettySize=auto;html=1;exitX=0.5;exitY=1;exitDx=0;exitDy=0;entryX=0.5;entryY=0;entryDx=0;entryDy=0;" parent="EYHyG1AjcD9HK0cgToKn-1" source="zGsJtaL-EvxE9tPqCpzB-89" target="zGsJtaL-EvxE9tPqCpzB-91" edge="1">
          <mxGeometry relative="1" as="geometry">
            <mxPoint x="540" y="310" as="targetPoint" />
          </mxGeometry>
        </mxCell>
        <mxCell id="zGsJtaL-EvxE9tPqCpzB-89" value="从AXI总线读取&lt;div&gt;地址addr处的32位数据data&lt;/div&gt;" style="rounded=0;whiteSpace=wrap;html=1;" parent="EYHyG1AjcD9HK0cgToKn-1" vertex="1">
          <mxGeometry x="490" y="210" width="100" height="60" as="geometry" />
        </mxCell>
        <mxCell id="zGsJtaL-EvxE9tPqCpzB-90" style="edgeStyle=orthogonalEdgeStyle;rounded=0;orthogonalLoop=1;jettySize=auto;html=1;exitX=0.5;exitY=1;exitDx=0;exitDy=0;entryX=0.5;entryY=0;entryDx=0;entryDy=0;" parent="EYHyG1AjcD9HK0cgToKn-1" source="zGsJtaL-EvxE9tPqCpzB-104" target="zGsJtaL-EvxE9tPqCpzB-89" edge="1">
          <mxGeometry relative="1" as="geometry">
            <mxPoint x="540" y="69.99999999999989" as="sourcePoint" />
          </mxGeometry>
        </mxCell>
        <mxCell id="zGsJtaL-EvxE9tPqCpzB-124" value="Y" style="edgeLabel;html=1;align=center;verticalAlign=middle;resizable=0;points=[];" parent="zGsJtaL-EvxE9tPqCpzB-90" vertex="1" connectable="0">
          <mxGeometry x="-0.1167" y="2" relative="1" as="geometry">
            <mxPoint x="-2" y="-8" as="offset" />
          </mxGeometry>
        </mxCell>
        <mxCell id="zGsJtaL-EvxE9tPqCpzB-91" value="回复响应头&lt;div&gt;{&quot;ok&quot;, (uint32_t)4, data}&lt;/div&gt;" style="rounded=0;whiteSpace=wrap;html=1;" parent="EYHyG1AjcD9HK0cgToKn-1" vertex="1">
          <mxGeometry x="490" y="310" width="100" height="60" as="geometry" />
        </mxCell>
        <mxCell id="zGsJtaL-EvxE9tPqCpzB-92" value="参数&lt;div&gt;上传&lt;/div&gt;" style="ellipse;whiteSpace=wrap;html=1;aspect=fixed;" parent="EYHyG1AjcD9HK0cgToKn-1" vertex="1">
          <mxGeometry x="520" y="30" width="40" height="40" as="geometry" />
        </mxCell>
        <mxCell id="zGsJtaL-EvxE9tPqCpzB-93" value="成功" style="ellipse;whiteSpace=wrap;html=1;aspect=fixed;" parent="EYHyG1AjcD9HK0cgToKn-1" vertex="1">
          <mxGeometry x="520" y="510" width="40" height="40" as="geometry" />
        </mxCell>
        <mxCell id="zGsJtaL-EvxE9tPqCpzB-94" value="失败" style="ellipse;whiteSpace=wrap;html=1;aspect=fixed;" parent="EYHyG1AjcD9HK0cgToKn-1" vertex="1">
          <mxGeometry x="600" y="510" width="40" height="40" as="geometry" />
        </mxCell>
        <mxCell id="zGsJtaL-EvxE9tPqCpzB-95" style="edgeStyle=orthogonalEdgeStyle;rounded=0;orthogonalLoop=1;jettySize=auto;html=1;exitX=0.5;exitY=1;exitDx=0;exitDy=0;entryX=0.5;entryY=0;entryDx=0;entryDy=0;" parent="EYHyG1AjcD9HK0cgToKn-1" source="zGsJtaL-EvxE9tPqCpzB-97" target="zGsJtaL-EvxE9tPqCpzB-93" edge="1">
          <mxGeometry relative="1" as="geometry" />
        </mxCell>
        <mxCell id="zGsJtaL-EvxE9tPqCpzB-121" value="Y" style="edgeLabel;html=1;align=center;verticalAlign=middle;resizable=0;points=[];" parent="zGsJtaL-EvxE9tPqCpzB-95" vertex="1" connectable="0">
          <mxGeometry x="0.0577" y="2" relative="1" as="geometry">
            <mxPoint x="-2" y="-11" as="offset" />
          </mxGeometry>
        </mxCell>
        <mxCell id="zGsJtaL-EvxE9tPqCpzB-96" style="edgeStyle=orthogonalEdgeStyle;rounded=0;orthogonalLoop=1;jettySize=auto;html=1;exitX=1;exitY=0.5;exitDx=0;exitDy=0;entryX=0.5;entryY=0;entryDx=0;entryDy=0;" parent="EYHyG1AjcD9HK0cgToKn-1" source="zGsJtaL-EvxE9tPqCpzB-104" target="zGsJtaL-EvxE9tPqCpzB-94" edge="1">
          <mxGeometry relative="1" as="geometry">
            <mxPoint x="640" y="439.66666666666674" as="targetPoint" />
          </mxGeometry>
        </mxCell>
        <mxCell id="zGsJtaL-EvxE9tPqCpzB-123" value="N" style="edgeLabel;html=1;align=center;verticalAlign=middle;resizable=0;points=[];" parent="zGsJtaL-EvxE9tPqCpzB-96" vertex="1" connectable="0">
          <mxGeometry x="-0.8829" relative="1" as="geometry">
            <mxPoint x="-14" as="offset" />
          </mxGeometry>
        </mxCell>
        <mxCell id="zGsJtaL-EvxE9tPqCpzB-106" style="edgeStyle=orthogonalEdgeStyle;rounded=0;orthogonalLoop=1;jettySize=auto;html=1;exitX=1;exitY=0.5;exitDx=0;exitDy=0;" parent="EYHyG1AjcD9HK0cgToKn-1" source="zGsJtaL-EvxE9tPqCpzB-97" edge="1">
          <mxGeometry relative="1" as="geometry">
            <mxPoint x="620" y="440" as="targetPoint" />
          </mxGeometry>
        </mxCell>
        <mxCell id="zGsJtaL-EvxE9tPqCpzB-122" value="N" style="edgeLabel;html=1;align=center;verticalAlign=middle;resizable=0;points=[];" parent="zGsJtaL-EvxE9tPqCpzB-106" vertex="1" connectable="0">
          <mxGeometry x="0.2905" y="-1" relative="1" as="geometry">
            <mxPoint x="-9" y="-1" as="offset" />
          </mxGeometry>
        </mxCell>
        <mxCell id="zGsJtaL-EvxE9tPqCpzB-97" value="发送成功？" style="rhombus;whiteSpace=wrap;html=1;" parent="EYHyG1AjcD9HK0cgToKn-1" vertex="1">
          <mxGeometry x="490" y="410" width="100" height="60" as="geometry" />
        </mxCell>
        <mxCell id="zGsJtaL-EvxE9tPqCpzB-98" style="edgeStyle=orthogonalEdgeStyle;rounded=0;orthogonalLoop=1;jettySize=auto;html=1;exitX=0.5;exitY=1;exitDx=0;exitDy=0;entryX=0.5;entryY=0;entryDx=0;entryDy=0;" parent="EYHyG1AjcD9HK0cgToKn-1" source="zGsJtaL-EvxE9tPqCpzB-91" target="zGsJtaL-EvxE9tPqCpzB-97" edge="1">
          <mxGeometry relative="1" as="geometry" />
        </mxCell>
        <mxCell id="zGsJtaL-EvxE9tPqCpzB-102" value="" style="edgeStyle=orthogonalEdgeStyle;rounded=0;orthogonalLoop=1;jettySize=auto;html=1;exitX=0.5;exitY=1;exitDx=0;exitDy=0;entryX=0.5;entryY=0;entryDx=0;entryDy=0;" parent="EYHyG1AjcD9HK0cgToKn-1" source="zGsJtaL-EvxE9tPqCpzB-81" target="zGsJtaL-EvxE9tPqCpzB-101" edge="1">
          <mxGeometry relative="1" as="geometry">
            <mxPoint x="380" y="70" as="sourcePoint" />
            <mxPoint x="380" y="210" as="targetPoint" />
          </mxGeometry>
        </mxCell>
        <mxCell id="zGsJtaL-EvxE9tPqCpzB-101" value="addr范围有效？" style="rhombus;whiteSpace=wrap;html=1;" parent="EYHyG1AjcD9HK0cgToKn-1" vertex="1">
          <mxGeometry x="330" y="110" width="100" height="60" as="geometry" />
        </mxCell>
        <mxCell id="zGsJtaL-EvxE9tPqCpzB-105" value="" style="edgeStyle=orthogonalEdgeStyle;rounded=0;orthogonalLoop=1;jettySize=auto;html=1;exitX=0.5;exitY=1;exitDx=0;exitDy=0;entryX=0.5;entryY=0;entryDx=0;entryDy=0;" parent="EYHyG1AjcD9HK0cgToKn-1" source="zGsJtaL-EvxE9tPqCpzB-92" target="zGsJtaL-EvxE9tPqCpzB-104" edge="1">
          <mxGeometry relative="1" as="geometry">
            <mxPoint x="540" y="70" as="sourcePoint" />
            <mxPoint x="540" y="210" as="targetPoint" />
          </mxGeometry>
        </mxCell>
        <mxCell id="zGsJtaL-EvxE9tPqCpzB-104" value="addr范围有效？" style="rhombus;whiteSpace=wrap;html=1;" parent="EYHyG1AjcD9HK0cgToKn-1" vertex="1">
          <mxGeometry x="490" y="110" width="100" height="60" as="geometry" />
        </mxCell>
        <mxCell id="zGsJtaL-EvxE9tPqCpzB-44" style="edgeStyle=orthogonalEdgeStyle;rounded=0;orthogonalLoop=1;jettySize=auto;html=1;exitX=0.5;exitY=1;exitDx=0;exitDy=0;entryX=0.5;entryY=0;entryDx=0;entryDy=0;" parent="EYHyG1AjcD9HK0cgToKn-1" source="zGsJtaL-EvxE9tPqCpzB-42" target="zGsJtaL-EvxE9tPqCpzB-43" edge="1">
          <mxGeometry relative="1" as="geometry" />
        </mxCell>
        <mxCell id="zGsJtaL-EvxE9tPqCpzB-42" value="读取width*height&lt;div&gt;像素的数据图像，&lt;/div&gt;&lt;div&gt;并存入DDR&lt;/div&gt;" style="rounded=0;whiteSpace=wrap;html=1;" parent="EYHyG1AjcD9HK0cgToKn-1" vertex="1">
          <mxGeometry x="10" y="110" width="100" height="60" as="geometry" />
        </mxCell>
        <mxCell id="zGsJtaL-EvxE9tPqCpzB-48" style="edgeStyle=orthogonalEdgeStyle;rounded=0;orthogonalLoop=1;jettySize=auto;html=1;exitX=0.5;exitY=1;exitDx=0;exitDy=0;entryX=0.5;entryY=0;entryDx=0;entryDy=0;" parent="EYHyG1AjcD9HK0cgToKn-1" source="zGsJtaL-EvxE9tPqCpzB-43" target="zGsJtaL-EvxE9tPqCpzB-47" edge="1">
          <mxGeometry relative="1" as="geometry">
            <mxPoint x="220" y="290" as="targetPoint" />
            <Array as="points">
              <mxPoint x="60" y="300" />
              <mxPoint x="60" y="300" />
            </Array>
          </mxGeometry>
        </mxCell>
        <mxCell id="zGsJtaL-EvxE9tPqCpzB-110" value="Y" style="edgeLabel;html=1;align=center;verticalAlign=middle;resizable=0;points=[];" parent="zGsJtaL-EvxE9tPqCpzB-48" vertex="1" connectable="0">
          <mxGeometry x="0.06" y="-1" relative="1" as="geometry">
            <mxPoint x="1" y="-11" as="offset" />
          </mxGeometry>
        </mxCell>
        <mxCell id="zGsJtaL-EvxE9tPqCpzB-58" style="edgeStyle=orthogonalEdgeStyle;rounded=0;orthogonalLoop=1;jettySize=auto;html=1;exitX=1;exitY=0.5;exitDx=0;exitDy=0;entryX=0.5;entryY=0;entryDx=0;entryDy=0;" parent="EYHyG1AjcD9HK0cgToKn-1" source="zGsJtaL-EvxE9tPqCpzB-43" target="zGsJtaL-EvxE9tPqCpzB-53" edge="1">
          <mxGeometry relative="1" as="geometry" />
        </mxCell>
        <mxCell id="zGsJtaL-EvxE9tPqCpzB-109" value="N" style="edgeLabel;html=1;align=center;verticalAlign=middle;resizable=0;points=[];" parent="zGsJtaL-EvxE9tPqCpzB-58" vertex="1" connectable="0">
          <mxGeometry x="-0.9071" y="1" relative="1" as="geometry">
            <mxPoint x="-4" y="1" as="offset" />
          </mxGeometry>
        </mxCell>
        <mxCell id="zGsJtaL-EvxE9tPqCpzB-43" value="全部读取成功？" style="rhombus;whiteSpace=wrap;html=1;" parent="EYHyG1AjcD9HK0cgToKn-1" vertex="1">
          <mxGeometry x="10" y="210" width="100" height="60" as="geometry" />
        </mxCell>
        <mxCell id="zGsJtaL-EvxE9tPqCpzB-46" style="edgeStyle=orthogonalEdgeStyle;rounded=0;orthogonalLoop=1;jettySize=auto;html=1;exitX=0.5;exitY=1;exitDx=0;exitDy=0;entryX=0.5;entryY=0;entryDx=0;entryDy=0;" parent="EYHyG1AjcD9HK0cgToKn-1" source="zGsJtaL-EvxE9tPqCpzB-51" target="zGsJtaL-EvxE9tPqCpzB-42" edge="1">
          <mxGeometry relative="1" as="geometry">
            <mxPoint x="60" y="69.99999999999989" as="sourcePoint" />
          </mxGeometry>
        </mxCell>
        <mxCell id="zGsJtaL-EvxE9tPqCpzB-47" value="回复响应头&lt;div&gt;{&quot;ok&quot;, (uint32_t)0}&lt;/div&gt;" style="rounded=0;whiteSpace=wrap;html=1;" parent="EYHyG1AjcD9HK0cgToKn-1" vertex="1">
          <mxGeometry x="10" y="310" width="100" height="60" as="geometry" />
        </mxCell>
        <mxCell id="zGsJtaL-EvxE9tPqCpzB-51" value="图像&lt;div&gt;上传&lt;/div&gt;" style="ellipse;whiteSpace=wrap;html=1;aspect=fixed;" parent="EYHyG1AjcD9HK0cgToKn-1" vertex="1">
          <mxGeometry x="40" y="30" width="40" height="40" as="geometry" />
        </mxCell>
        <mxCell id="zGsJtaL-EvxE9tPqCpzB-52" value="成功" style="ellipse;whiteSpace=wrap;html=1;aspect=fixed;" parent="EYHyG1AjcD9HK0cgToKn-1" vertex="1">
          <mxGeometry x="40" y="510" width="40" height="40" as="geometry" />
        </mxCell>
        <mxCell id="zGsJtaL-EvxE9tPqCpzB-53" value="失败" style="ellipse;whiteSpace=wrap;html=1;aspect=fixed;" parent="EYHyG1AjcD9HK0cgToKn-1" vertex="1">
          <mxGeometry x="120" y="510" width="40" height="40" as="geometry" />
        </mxCell>
        <mxCell id="zGsJtaL-EvxE9tPqCpzB-57" style="edgeStyle=orthogonalEdgeStyle;rounded=0;orthogonalLoop=1;jettySize=auto;html=1;exitX=0.5;exitY=1;exitDx=0;exitDy=0;entryX=0.5;entryY=0;entryDx=0;entryDy=0;" parent="EYHyG1AjcD9HK0cgToKn-1" source="zGsJtaL-EvxE9tPqCpzB-55" target="zGsJtaL-EvxE9tPqCpzB-52" edge="1">
          <mxGeometry relative="1" as="geometry" />
        </mxCell>
        <mxCell id="zGsJtaL-EvxE9tPqCpzB-112" value="Y" style="edgeLabel;html=1;align=center;verticalAlign=middle;resizable=0;points=[];" parent="zGsJtaL-EvxE9tPqCpzB-57" vertex="1" connectable="0">
          <mxGeometry x="0.1881" relative="1" as="geometry">
            <mxPoint y="-14" as="offset" />
          </mxGeometry>
        </mxCell>
        <mxCell id="zGsJtaL-EvxE9tPqCpzB-59" style="edgeStyle=orthogonalEdgeStyle;rounded=0;orthogonalLoop=1;jettySize=auto;html=1;exitX=1;exitY=0.5;exitDx=0;exitDy=0;" parent="EYHyG1AjcD9HK0cgToKn-1" source="zGsJtaL-EvxE9tPqCpzB-55" edge="1">
          <mxGeometry relative="1" as="geometry">
            <mxPoint x="140" y="440" as="targetPoint" />
          </mxGeometry>
        </mxCell>
        <mxCell id="zGsJtaL-EvxE9tPqCpzB-111" value="N" style="edgeLabel;html=1;align=center;verticalAlign=middle;resizable=0;points=[];" parent="zGsJtaL-EvxE9tPqCpzB-59" vertex="1" connectable="0">
          <mxGeometry x="-0.4878" y="1" relative="1" as="geometry">
            <mxPoint y="1" as="offset" />
          </mxGeometry>
        </mxCell>
        <mxCell id="zGsJtaL-EvxE9tPqCpzB-55" value="发送成功？" style="rhombus;whiteSpace=wrap;html=1;" parent="EYHyG1AjcD9HK0cgToKn-1" vertex="1">
          <mxGeometry x="10" y="410" width="100" height="60" as="geometry" />
        </mxCell>
        <mxCell id="zGsJtaL-EvxE9tPqCpzB-56" style="edgeStyle=orthogonalEdgeStyle;rounded=0;orthogonalLoop=1;jettySize=auto;html=1;exitX=0.5;exitY=1;exitDx=0;exitDy=0;entryX=0.5;entryY=0;entryDx=0;entryDy=0;" parent="EYHyG1AjcD9HK0cgToKn-1" source="zGsJtaL-EvxE9tPqCpzB-47" target="zGsJtaL-EvxE9tPqCpzB-55" edge="1">
          <mxGeometry relative="1" as="geometry" />
        </mxCell>
      </root>
    </mxGraphModel>
  </diagram>
</mxfile>
